<?xml version="1.0" encoding="utf-8"?>
<!-- Generator: Adobe Illustrator 21.1.0, SVG Export Plug-In . SVG Version: 6.00 Build 0)  -->
<svg version="1.1" id="Layer_1" xmlns="http://www.w3.org/2000/svg" xmlns:xlink="http://www.w3.org/1999/xlink" x="0px" y="0px"
	 viewBox="0 0 10.6 13.5" style="enable-background:new 0 0 10.6 13.5;" xml:space="preserve">
<style type="text/css">
	.st0{fill:#F6F7FF;}
	.st1{fill:#FFFFFF;}
	.st2{fill:#22346C;}
	.st3{fill:#FDCE07;}
	.st4{fill:#FBCD13;}
	.st5{opacity:0.12;fill:none;stroke:#000000;stroke-miterlimit:10;}
	.st6{fill:#B9B9B9;}
	.st7{fill:#EE404C;}
	.st8{fill:#BCC0C9;}
	.st9{fill:#DFE2EF;}
	.st10{fill:#DCDEEA;}
	.st11{fill:#EDEFF4;}
	.st12{fill:#E6EAEF;}
	.st13{fill:#B4D8ED;}
	.st14{fill:#D9F2F6;}
	.st15{fill:#95DD57;}
	.st16{fill:#E6E8EF;}
	.st17{fill:none;stroke:#22346C;stroke-width:1.0775;stroke-linecap:round;stroke-miterlimit:10;}
	.st18{fill:#D82B4C;}
	.st19{fill:#FF931E;}
	.st20{fill:#A9E07E;}
	.st21{fill:none;stroke:#B9B9B9;stroke-width:0.8465;stroke-miterlimit:10;}
	.st22{fill:#727375;}
	.st23{fill:#FFC863;}
	.st24{fill:#F0F0F2;}
	.st25{fill:#48C2FF;}
	.st26{fill:#D1DDEB;}
	.st27{fill:#E4686A;}
	.st28{fill:#606076;}
	.st29{fill:#FFCE03;}
	.st30{opacity:0.95;}
	.st31{fill:#CCCCCC;}
	.st32{fill:none;stroke:#000000;stroke-width:2.063;stroke-miterlimit:10;}
	.st33{fill:none;stroke:#ED1C24;stroke-width:2;stroke-miterlimit:10;}
	.st34{fill:#ED1C24;}
	.st35{fill:none;stroke:#DB8D93;stroke-width:2;stroke-miterlimit:10;}
	.st36{fill:#DB8D93;}
</style>
<g>
	<g>
		<g>
			<path class="st6" d="M8.3,13.5H2.2c-1.2,0-2.2-1-2.2-2.2V3.9c0-1.2,1-2.2,2.2-2.2h6.1c1.2,0,2.2,1,2.2,2.2v7.4
				C10.6,12.5,9.6,13.5,8.3,13.5z M2.2,2.3C1.4,2.3,0.7,3,0.7,3.9v7.4c0,0.9,0.7,1.6,1.6,1.6h6.1c0.9,0,1.6-0.7,1.6-1.6V3.9
				c0-0.9-0.7-1.6-1.6-1.6H2.2z"/>
		</g>
		<g>
			<path class="st6" d="M10.2,8.2C9.8,8.2,9.5,8,9.3,7.8C9.1,7.6,9,7.6,8.8,7.6c-0.2,0-0.3,0.1-0.5,0.2C8.1,8,7.8,8.2,7.3,8.2
				C6.8,8.2,6.4,8,6,7.8C5.8,7.7,5.5,7.6,5.3,7.6C5,7.6,4.7,7.7,4.4,7.9C4,8,3.6,8.2,3.2,8.2C2.7,8.2,2.4,8,2.2,7.8
				C2.1,7.6,2,7.6,1.7,7.6c-0.5,0-1,0.4-1.2,0.6c-0.1,0.1-0.3,0.1-0.5,0C0,8,0,7.8,0.1,7.6c0,0,0.8-0.7,1.6-0.7
				c0.5,0,0.7,0.2,0.9,0.4c0.2,0.2,0.3,0.2,0.5,0.2c0.3,0,0.6-0.1,0.9-0.3c0.4-0.2,0.8-0.4,1.2-0.4c0.4,0,0.7,0.2,1.1,0.3
				c0.3,0.2,0.6,0.3,0.9,0.3c0.3,0,0.4-0.1,0.6-0.3c0.2-0.2,0.5-0.4,0.9-0.4c0.5,0,0.7,0.2,0.9,0.4c0.2,0.2,0.3,0.2,0.5,0.2
				c0.2,0,0.3,0.1,0.3,0.3C10.6,8.1,10.4,8.2,10.2,8.2z"/>
		</g>
	</g>
	<path class="st6" d="M7.3,2.1V0.8C7.3,0.3,6.9,0,6.5,0H4.1C3.6,0,3.3,0.3,3.3,0.8v1.3H7.3z"/>
</g>
</svg>
