<?xml version="1.0" encoding="utf-8"?>
<!-- Generator: Adobe Illustrator 21.1.0, SVG Export Plug-In . SVG Version: 6.00 Build 0)  -->
<svg version="1.1" id="Layer_1" xmlns="http://www.w3.org/2000/svg" xmlns:xlink="http://www.w3.org/1999/xlink" x="0px" y="0px"
	 viewBox="0 0 15.5 23.2" style="enable-background:new 0 0 15.5 23.2;" xml:space="preserve">
<style type="text/css">
	.st0{fill:#F6F7FF;}
	.st1{fill:#FFFFFF;}
	.st2{fill:#22346C;}
	.st3{fill:#FDCE07;}
	.st4{fill:#FBCD13;}
	.st5{opacity:0.12;fill:none;stroke:#000000;stroke-miterlimit:10;}
	.st6{fill:#B9B9B9;}
	.st7{fill:#EE404C;}
	.st8{fill:#BCC0C9;}
	.st9{fill:#DFE2EF;}
	.st10{fill:#DCDEEA;}
	.st11{fill:#EDEFF4;}
	.st12{fill:#E6EAEF;}
	.st13{fill:#B4D8ED;}
	.st14{fill:#D9F2F6;}
	.st15{fill:#95DD57;}
	.st16{fill:#E6E8EF;}
	.st17{fill:none;stroke:#22346C;stroke-width:1.0775;stroke-linecap:round;stroke-miterlimit:10;}
	.st18{fill:#D82B4C;}
	.st19{fill:#FF931E;}
	.st20{fill:#A9E07E;}
	.st21{fill:none;stroke:#B9B9B9;stroke-width:0.8465;stroke-miterlimit:10;}
	.st22{fill:#727375;}
	.st23{fill:#FFC863;}
	.st24{fill:#F0F0F2;}
	.st25{fill:#48C2FF;}
	.st26{fill:#D1DDEB;}
	.st27{fill:#E4686A;}
	.st28{fill:#606076;}
	.st29{fill:#FFCE03;}
	.st30{opacity:0.95;}
	.st31{fill:#CCCCCC;}
	.st32{fill:none;stroke:#000000;stroke-width:2.063;stroke-miterlimit:10;}
	.st33{fill:none;stroke:#ED1C24;stroke-width:2;stroke-miterlimit:10;}
	.st34{fill:#ED1C24;}
	.st35{fill:none;stroke:#DB8D93;stroke-width:2;stroke-miterlimit:10;}
	.st36{fill:#DB8D93;}
</style>
<g>
	<g>
		<path class="st6" d="M7.7,0C3.5,0,0,3.5,0,7.7c0,1.3,0.3,2.5,0.9,3.7l6.4,11.5c0.1,0.2,0.2,0.2,0.4,0.2c0.2,0,0.3-0.1,0.4-0.2
			l6.4-11.5c0.6-1.1,0.9-2.4,0.9-3.7C15.5,3.5,12,0,7.7,0z M7.7,10.8c-1.7,0-3.1-1.4-3.1-3.1S6,4.7,7.7,4.7s3.1,1.4,3.1,3.1
			S9.4,10.8,7.7,10.8z"/>
	</g>
</g>
</svg>
